<?xml version="1.0" encoding="utf-8"?>
<svg xmlns="http://www.w3.org/2000/svg" xmlns:xlink="http://www.w3.org/1999/xlink" >
    <symbol viewBox="0 0 14 8" id="arrow-down" > 
        <path d="M1 1L7 7L13 1"  stroke-width="2" stroke-linecap="round" stroke-linejoin="round"/> 
    </symbol>  
    <symbol viewBox="0 0 823 377" id="bg-R" >  
        <path d="M823 369.165C657.5 427.807 711 138.015 415 138.015C133.5 180.006 143.687 26.1677 0 0H823V369.165Z"/> 
    </symbol>  
    <symbol viewBox="0 0 858 397"  id="bg-L" >  
        <path d="M0 8.27109C172.538 -53.6371 116.763 252.297 425.351 252.297C718.823 207.967 708.202 370.375 858 398H0V8.27109Z"/> 
    </symbol>  
    <symbol viewBox="0 0 16 16" id="close"> 
        <path d="M1.14286 16C0.850446 16 0.558036 15.8884 0.334821 15.6652C-0.111607 15.2188 -0.111607 14.4955 0.334821 14.0491L14.0491 0.334821C14.4955 -0.111607 15.2188 -0.111607 15.6652 0.334821C16.1116 0.78125 16.1116 1.50446 15.6652 1.95089L1.95089 15.6652C1.72768 15.8884 1.43527 16 1.14286 16Z"  />
        <path d="M14.8571 16C14.5647 16 14.2723 15.8884 14.0491 15.6652L0.334821 1.95089C-0.111607 1.50446 -0.111607 0.78125 0.334821 0.334821C0.78125 -0.111607 1.50446 -0.111607 1.95089 0.334821L15.6652 14.0491C16.1116 14.4955 16.1116 15.2188 15.6652 15.6652C15.442 15.8884 15.1496 16 14.8571 16Z"  />
    </symbol>
</svg>